<?xml version="1.0" standalone="no"?>
<!DOCTYPE svg PUBLIC "-//W3C//DTD SVG 20010904//EN"
 "http://www.w3.org/TR/2001/REC-SVG-20010904/DTD/svg10.dtd">
<svg version="1.0" xmlns="http://www.w3.org/2000/svg"
 width="700.000000pt" height="700.000000pt" viewBox="0 0 700.000000 700.000000"
 preserveAspectRatio="xMidYMid meet">
<metadata>
Created by potrace 1.11, written by Peter Selinger 2001-2013
</metadata>
<g transform="translate(0.000000,700.000000) scale(0.100000,-0.100000)"
fill="#000000" stroke="none">
<path d="M1700 6545 c-137 -87 -150 -97 -245 -164 -629 -450 -1101 -1121
-1316 -1871 -46 -161 -90 -369 -104 -496 -3 -27 -8 -60 -10 -74 -18 -101 -25
-502 -12 -660 8 -94 17 -177 23 -210 2 -14 9 -54 15 -90 5 -36 19 -107 30
-159 12 -51 22 -101 24 -110 51 -244 227 -673 384 -936 38 -63 105 -170 111
-175 3 -3 18 -25 35 -50 46 -70 161 -218 229 -295 80 -91 267 -278 335 -335
30 -25 60 -51 67 -58 7 -6 14 -12 16 -12 3 0 4 111 4 246 -1 135 2 248 7 251
4 2 46 -20 95 -50 48 -30 105 -64 127 -76 22 -12 60 -33 85 -47 71 -41 372
-191 400 -199 14 -4 30 -11 35 -15 6 -4 37 -17 70 -29 33 -13 69 -27 80 -32
30 -13 190 -65 270 -87 144 -41 373 -85 510 -98 39 -3 86 -8 105 -10 51 -4
368 -4 415 1 22 2 69 7 104 10 308 32 596 140 796 299 166 132 288 312 349
519 41 139 48 184 51 372 7 413 -114 701 -379 904 -163 125 -432 236 -761 315
-195 47 -406 97 -430 102 -11 2 -33 7 -50 11 -16 4 -32 7 -35 8 -236 52 -576
149 -685 195 -11 5 -56 24 -100 41 -139 57 -296 137 -417 214 -434 276 -683
704 -723 1242 -14 185 -6 400 21 566 12 74 16 98 34 172 77 320 234 608 459
844 64 67 77 82 69 80 -2 0 -41 -25 -88 -54z"/>
<path d="M5290 6210 c0 -187 -2 -340 -4 -340 -3 0 -46 25 -97 56 -397 242
-871 419 -1254 469 -27 4 -63 8 -80 11 -93 12 -403 19 -495 10 -109 -11 -160
-17 -205 -26 -27 -5 -63 -12 -78 -14 -62 -11 -212 -58 -297 -95 -291 -127
-500 -334 -609 -604 -12 -30 -46 -162 -56 -217 -17 -92 -12 -328 10 -448 10
-58 14 -71 40 -147 128 -369 454 -557 1300 -746 99 -23 191 -43 205 -45 133
-25 575 -150 665 -189 17 -7 57 -23 90 -35 102 -39 335 -155 429 -215 253
-160 430 -333 564 -552 65 -105 115 -211 152 -318 35 -98 86 -304 94 -377 3
-27 8 -67 11 -90 3 -24 7 -63 10 -88 6 -57 6 -402 0 -455 -2 -22 -7 -60 -9
-85 -13 -112 -17 -146 -21 -160 -2 -8 -7 -28 -10 -45 -36 -210 -137 -467 -253
-650 -81 -126 -245 -309 -341 -380 -126 -92 185 77 394 214 373 246 718 592
975 981 79 121 130 208 203 355 79 159 114 238 162 375 21 58 40 112 43 120
40 114 109 417 137 600 27 179 38 500 24 692 -9 113 -19 219 -23 245 -2 10 -7
38 -10 63 -81 537 -306 1080 -631 1525 -275 376 -599 674 -1012 931 l-23 14 0
-340z"/>
</g>
</svg>
